<?xml version="1.0" encoding="UTF-8"?>
<svg version="1.1" xmlns="http://www.w3.org/2000/svg" width="256" height="256">
<path d="M0 0 C0 6.93 0 13.86 0 21 C-4.455 23.475 -4.455 23.475 -9 26 C-5.04 75.5 -5.04 75.5 -1 126 C4.445 128.475 4.445 128.475 10 131 C10 137.93 10 144.86 10 152 C2.16738309 150.25941846 -5.25415587 148.1316849 -12.8137207 145.53393555 C-14.23813251 145.05007109 -15.66666263 144.5781763 -17.09887695 144.11791992 C-19.18934612 143.44536315 -21.26442331 142.7369961 -23.33984375 142.01953125 C-24.57081787 141.60807861 -25.80179199 141.19662598 -27.07006836 140.77270508 C-30 139 -30 139 -31.3515625 136.13818359 C-32.48735401 130.43857108 -32.68391735 124.5574601 -33.03515625 118.76953125 C-33.16053017 116.86756233 -33.16053017 116.86756233 -33.28843689 114.9271698 C-33.50870683 111.57371003 -33.72281412 108.21998583 -33.93328857 104.86590576 C-34.2311678 100.13206035 -34.5373521 95.39876632 -34.84727478 90.66569519 C-35.0116036 88.14960856 -35.17202202 85.63326286 -35.32814026 83.11665344 C-35.40169235 81.97834579 -35.47524445 80.84003815 -35.55102539 79.66723633 C-35.64523521 78.16668449 -35.64523521 78.16668449 -35.74134827 76.63581848 C-35.96861923 74.31978911 -36.35995124 72.23204821 -37 70 C-37.18570053 70.72218719 -37.37140106 71.44437439 -37.56272888 72.18844604 C-39.31138003 78.98726694 -41.06219606 85.78552574 -42.81545925 92.58315849 C-43.71679679 96.07808042 -44.61728942 99.57321555 -45.51586914 103.06884766 C-46.38273339 106.44097328 -47.25179345 109.81252591 -48.12239265 113.18368912 C-48.61636688 115.09886112 -49.10805271 117.01462288 -49.59971619 118.9303894 C-49.89995193 120.09144196 -50.20018768 121.25249451 -50.50952148 122.44873047 C-50.77377426 123.47465302 -51.03802704 124.50057556 -51.31028748 125.55758667 C-52 128 -52 128 -53 130 C-62.57 130 -72.14 130 -82 130 C-87.28 110.2 -92.56 90.4 -98 70 C-98.9725334 72.91760019 -99.25186807 75.19457143 -99.46484375 78.24658203 C-99.54162354 79.31844757 -99.61840332 80.39031311 -99.69750977 81.49465942 C-99.77670654 82.65399994 -99.85590332 83.81334045 -99.9375 85.0078125 C-100.06499634 86.80060135 -100.06499634 86.80060135 -100.19506836 88.62960815 C-100.46705337 92.46115641 -100.7338385 96.29304315 -101 100.125 C-101.26687793 103.93547733 -101.53489382 107.7458671 -101.80493164 111.55612183 C-101.97279211 113.92782711 -102.13873939 116.29966881 -102.30249023 118.67166138 C-102.45311637 120.81154435 -102.61063701 122.95095784 -102.77639771 125.08972168 C-102.92043675 126.96445067 -103.04733534 128.8406152 -103.15304565 130.71789551 C-103.33154297 133.16259766 -103.33154297 133.16259766 -104 137 C-106.76086959 139.08606617 -109.72608104 139.94432367 -113 141 C-115.37559576 141.92410743 -117.74775086 142.85708791 -120.1171875 143.796875 C-122.04431549 144.53684768 -123.97405621 145.26965438 -125.90429688 146.00146484 C-127.89405656 146.75723828 -129.88061435 147.52105214 -131.8671875 148.28515625 C-133.1378345 148.76871908 -134.40866136 149.25180961 -135.6796875 149.734375 C-136.82163574 150.16975586 -137.96358398 150.60513672 -139.14013672 151.05371094 C-142 152 -142 152 -145 152 C-145 145.07 -145 138.14 -145 131 C-137 127 -137 127 -135 127 C-134.95577911 126.33475815 -134.91155823 125.6695163 -134.86599731 124.9841156 C-133.89708902 110.56891326 -132.79430522 96.17370498 -131.4921875 81.78515625 C-131.42665932 81.06075726 -131.36113113 80.33635826 -131.29361725 79.59000778 C-130.82440396 74.41383559 -130.35003571 69.23814051 -129.875 64.0625 C-129.39267162 58.8019836 -128.91219333 53.54130637 -128.435215 48.28030205 C-128.2465301 46.20785382 -128.055105 44.13567132 -127.86349487 42.06349182 C-127.74982574 40.81285446 -127.63615662 39.5622171 -127.51904297 38.27368164 C-127.41848602 37.17899063 -127.31792908 36.08429962 -127.21432495 34.95643616 C-126.90673754 30.97839658 -126.90673754 30.97839658 -127 27 C-129.19513773 25.2274219 -129.19513773 25.2274219 -132 23.9375 C-134.8125 22.52734375 -134.8125 22.52734375 -137 21 C-137 19.68 -137 18.36 -137 17 C-136.06542969 16.98582031 -135.13085938 16.97164062 -134.16796875 16.95703125 C-124.36420956 16.6010557 -115.59793018 14.86393211 -106.1796875 12.15625 C-99.84766158 10.35812744 -94.11047289 9.11689213 -87.69995117 11.20361328 C-83.98689471 13.67405993 -83.49523322 16.49353957 -82.5546875 20.62890625 C-82.25743523 21.80802078 -82.25743523 21.80802078 -81.95417786 23.01095581 C-81.51945644 24.74129764 -81.09420977 26.47403984 -80.67709351 28.20870972 C-79.97396619 31.1073233 -79.23388805 33.99434268 -78.48364258 36.88110352 C-76.8622707 43.12338056 -75.27333594 49.37361652 -73.6875 55.625 C-73.13234115 57.80733739 -72.57700367 59.98962934 -72.02148438 62.171875 C-70.67893639 67.44739634 -69.33856943 72.72346785 -68 78 C-65.41207253 70.64754382 -63.47870632 63.2247127 -61.64453125 55.65234375 C-61.33803146 54.39990372 -61.03153168 53.14746368 -60.71574402 51.85707092 C-59.90855792 48.5585112 -59.10585302 45.25887752 -58.30413818 41.95898438 C-57.4822027 38.57940606 -56.65594851 35.20088409 -55.83007812 31.82226562 C-54.21586997 25.21586011 -52.60640263 18.60830771 -51 12 C-49.98276855 11.77860352 -48.96553711 11.55720703 -47.91748047 11.32910156 C-44.07338195 10.4911831 -40.23061441 9.64728783 -36.38818359 8.80175781 C-34.73813959 8.4394983 -33.08775822 8.07877136 -31.43701172 7.71972656 C-22.02759155 5.67196217 -12.72756273 3.47557961 -3.49658203 0.72558594 C-1 0 -1 0 0 0 Z " fill="#FFFFFF" transform="translate(217,103)"/>
<path d="M0 0 C3.27092784 2.8405426 3.32148027 3.58082239 3.8125 8 C3.63952448 17.81242975 -3.08080931 25.07350626 -9.671875 31.67578125 C-41.3363242 57.2670226 -91.34658709 70.78929098 -130.625 79.0625 C-132.40390625 79.46082031 -132.40390625 79.46082031 -134.21875 79.8671875 C-153.76833814 83.62276627 -178.44430778 83.0552538 -196.0625 73.125 C-202.20263608 68.18293925 -202.20263608 68.18293925 -203.0078125 64.140625 C-203.20565573 60.63220513 -202.8057847 58.4322869 -201.25 55.25 C-193.55860518 48.84050432 -183.12226479 49.34630105 -173.625 50.0625 C-170.20897371 50.41445422 -166.79815115 50.80276802 -163.38647461 51.19458008 C-125.99658774 55.47304899 -92.04425597 47.71737769 -56.625 36.0625 C-59.94925585 43.93573755 -68.87834633 49.20932134 -75.625 54.0625 C-68.03868538 50.70515225 -61.85707906 46.52349131 -55.625 41.0625 C-55.00882813 40.53011719 -54.39265625 39.99773437 -53.7578125 39.44921875 C-48.0355458 34.13568539 -43.9092173 27.53318368 -39.625 21.0625 C-38.89539063 19.96292969 -38.16578125 18.86335938 -37.4140625 17.73046875 C-36.08707268 15.73011793 -34.76481149 13.72661481 -33.44921875 11.71875 C-30.41424701 7.29951921 -27.64774603 3.75538269 -23.125 0.8125 C-21.99578125 0.06226563 -21.99578125 0.06226563 -20.84375 -0.703125 C-14.69528095 -4.12375215 -5.9403924 -3.86413875 0 0 Z " fill="#FFFFFF" transform="translate(227.625,29.9375)"/>
<path d="M0 0 C11.5619738 7.22912991 16.47482196 24.50141256 21.51171875 36.46875 C21.78777954 37.11748077 22.06384033 37.76621155 22.3482666 38.43460083 C23.13727469 40.2998426 23.90689714 42.17324807 24.67578125 44.046875 C25.12646973 45.1390332 25.5771582 46.23119141 26.04150391 47.35644531 C26.8914175 50.23466224 26.97191083 51.47380355 25.88671875 54.21875 C9.27835509 58.94391967 -7.38126562 63.07557323 -24.30078125 66.53125 C-25.49853683 66.7777832 -25.49853683 66.7777832 -26.7204895 67.02929688 C-38.46875737 69.43650223 -50.25548703 71.43200448 -62.11328125 73.21875 C-62.18945316 66.0654992 -62.24193246 58.91235333 -62.27807617 51.75878906 C-62.29314659 49.32613211 -62.31360648 46.89350226 -62.33959961 44.4609375 C-62.37605865 40.96086939 -62.39302545 37.4611611 -62.40625 33.9609375 C-62.42173386 32.87634247 -62.43721771 31.79174744 -62.45317078 30.67428589 C-62.45462715 24.11458228 -61.94291254 19.48370918 -57.48828125 14.34375 C-51.68004052 11.59247807 -45.91027878 13.24530403 -40.11328125 15.21875 C-34.80478305 16.01405122 -34.80478305 16.01405122 -30.10546875 13.8984375 C-28.02400992 12.07818135 -26.06833711 10.17380586 -24.11328125 8.21875 C-22.70739185 6.9360042 -21.29094866 5.66471238 -19.86328125 4.40625 C-19.239375 3.84292969 -18.61546875 3.27960937 -17.97265625 2.69921875 C-12.63686193 -1.54923933 -6.44494013 -2.38260264 0 0 Z " fill="#FFFFFF" transform="translate(150.11328125,1.78125)"/>
</svg>
